<svg width="20" height="20" viewBox="0 0 20 20" fill="none" xmlns="http://www.w3.org/2000/svg">
<g clip-path="url(#clip0_3_28)">
<path d="M15.0687 6.25C15.4227 5.99844 15.7623 5.71844 16.0734 5.40727C16.7258 4.75489 17.1622 3.95219 17.3022 3.14707C17.4557 2.26453 17.2305 1.44512 16.6844 0.899026C16.2489 0.463518 15.6588 0.233284 14.9781 0.233284C14.0087 0.233284 12.9874 0.698597 12.1761 1.50989C10.8778 2.80824 10.1209 4.60047 9.71371 5.87946C9.41215 4.59426 8.81125 2.85907 7.64305 1.69082C7.01621 1.06403 6.21504 0.74219 5.45855 0.74219C4.84031 0.74219 4.25191 0.957112 3.81285 1.39621C2.83656 2.37254 2.96848 4.08735 4.1075 5.22637C4.51359 5.63246 4.98832 5.96977 5.48875 6.25004H1.25V11.25H2.5V20H17.5V11.25H18.75V6.25H15.0687ZM13.1704 2.50426C13.7119 1.96278 14.3877 1.63953 14.978 1.63953C15.187 1.63953 15.4802 1.68356 15.69 1.8934C16.1984 2.40176 15.9129 3.5791 15.079 4.41289C14.2207 5.27121 13.0661 5.86149 12.0628 6.25H11.0731C11.4357 5.12602 12.0898 3.58485 13.1704 2.50426ZM4.56902 3.14239C4.55531 2.96426 4.56805 2.62973 4.80723 2.39055C5.0073 2.19047 5.27184 2.14844 5.45855 2.14844C5.87375 2.14844 6.30754 2.34407 6.64863 2.68516C7.3102 3.34672 7.855 4.39946 8.22418 5.72961C8.23414 5.76555 8.24387 5.80129 8.2534 5.83676C8.21793 5.82727 8.18219 5.81754 8.14625 5.80754C6.81609 5.43832 5.7634 4.89352 5.10184 4.23196C4.7927 3.92285 4.59852 3.52571 4.56902 3.14239ZM8.75 18.75H3.75V10.625H8.75V18.75ZM8.75 10H2.5V7.5H8.75V10ZM16.25 18.75H11.25V10.625H16.25V18.75ZM17.5 10H11.25V7.5H17.5V10Z" fill="white"/>
</g>
<defs>
<clipPath id="clip0_3_28">
<rect width="20" height="20" fill="white"/>
</clipPath>
</defs>
</svg>
